<?xml version="1.0" encoding="UTF-8"?>
<svg id="Camada_2" data-name="Camada 2" xmlns="http://www.w3.org/2000/svg" viewBox="0 0 964.93 953.8">
  <defs>
    <style>
      .cls-1 {
        fill: #1d57a5;
      }

      .cls-2 {
        fill: none;
        stroke: #1d57a5;
        stroke-linecap: round;
        stroke-miterlimit: 10;
        stroke-width: 20px;
      }
    </style>
  </defs>
  <g id="Camada_1" data-name="Camada 1">
    <g>
      <g>
        <path class="cls-1" d="M528.45,882.22c1.39,95.44-148.53,95.45-147.12,0-1.39-95.44,148.53-95.44,147.12,0Z"/>
        <path class="cls-1" d="M964.92,345.31c1.39,95.44-148.53,95.45-147.12,0-1.39-95.44,148.53-95.44,147.12,0Z"/>
        <path class="cls-1" d="M147.13,372.68c1.39,95.44-148.53,95.45-147.12,0-1.39-95.44,148.53-95.44,147.12,0Z"/>
        <path class="cls-1" d="M381.32,71.58c1.39,95.44-148.53,95.45-147.12,0-1.39-95.44,148.53-95.44,147.12,0Z"/>
        <path class="cls-1" d="M805.08,711.59c1.39,95.44-148.53,95.45-147.12,0-1.39-95.44,148.53-95.44,147.12,0Z"/>
        <path class="cls-1" d="M590.49,97.84c1.39,95.44-148.53,95.45-147.12,0-1.39-95.44,148.53-95.44,147.12,0Z"/>
        <path class="cls-1" d="M574.55,396.12c1.39,95.44-148.53,95.45-147.12,0-1.39-95.44,148.53-95.44,147.12,0Z"/>
      </g>
      <g>
        <path class="cls-1" d="M368.5,78.21c13.74,35.83,32.94,53.96,57.2,53.96,20.71,0,36.59-14.4,43.49-21.97,16.47-7.34,53.88-21.63,79.76-21.63,8.88,0,15.36,1.73,17.78,4.74,2.95,3.68,3.2,12.7.66,24.13-4.28,19.29-.48,38.33,11.29,56.61,22.71,35.23,76.6,67.81,160.19,96.83,53.97,18.74,102.4,29.77,113.5,32.19,4.44,2.13,16.95,8.45,29.37,17.54,17.75,13,27.89,26.08,28.56,36.85.95,15.34-18.16,30.18-34.36,39.93-50.88,30.61-87.76,85.14-106.66,157.69-11.92,45.74-13.4,85.88-13.29,98.39-3.26,40.99-8.81,70.13-16.5,86.62-5.93,12.71-10.38,12.71-12.52,12.71-8.37,0-22.04-7.18-35.26-14.13-19.88-10.45-42.4-22.29-67.04-22.29s-47.12,12.4-65.34,36.86c-17.36,23.29-32.09,58.27-44.9,106.65-11,1.06-27.65,2.31-45.28,2.31-35.51,0-53.12-4.87-61.59-8.88,30.41-141.73,15.61-251.53-44.04-326.49-73.33-92.14-192.63-105.9-257.21-105.9-3.88,0-7.49.05-10.78.14v-102.48c104.1-45,142.66-109.8,156.57-157.11,8.92-30.35,9.04-57.32,7.33-75.49l109.08-7.79M382.45,57.16l-146.3,10.45s44.89,156.1-160.62,237.63v137.03s11.76-1.32,30.78-1.32c94.41,0,368.35,32.52,278.95,420.56,14.12,16.6,50.9,20.71,83.9,20.71s61.24-3.98,61.24-3.98c27.53-112.29,60.97-141.84,94.28-141.84,36.99,0,73.83,36.42,102.3,36.42,23.74,0,41.65-25.3,48.99-118.15,0,0-2.97-171.99,110.3-240.12,113.26-68.14-27.46-130.54-27.46-130.54,0,0-294.17-61.85-271.88-162.22,9.12-41.07-11.01-53.2-37.97-53.2-38.93,0-92.12,25.29-92.12,25.29,0,0-13.83,18.3-31.14,18.3-13.97,0-30.2-11.92-43.25-55.01h0Z"/>
        <path class="cls-2" d="M114.73,380.35c338.5-216.3,244.11,190.04,703.07-7.67"/>
        <path class="cls-2" d="M683,656.4s-249.52-191.35-182.01-485"/>
      </g>
    </g>
  </g>
</svg>