<?xml version="1.0" encoding="UTF-8"?>
<svg id="Camada_2" data-name="Camada 2" xmlns="http://www.w3.org/2000/svg" viewBox="0 0 834 804.96">
  <defs>
    <style>
      .cls-1 {
        fill: #ff9e1b;
      }

      .cls-2 {
        fill: none;
        stroke: #ff9e1b;
        stroke-linecap: round;
        stroke-miterlimit: 10;
        stroke-width: 20px;
      }
    </style>
  </defs>
  <g id="Camada_1" data-name="Camada 1">
    <g>
      <path class="cls-1" d="M285.51,21.05c13.47,34.94,32.31,52.62,56.13,52.62,20.32,0,35.89-14.06,42.72-21.52,16.08-7.16,52.41-21.02,77.53-21.02,8.52,0,14.7,1.62,16.97,4.44,1.05,1.3,4.17,6.82.55,23.13-4.21,18.95-.48,37.66,11.08,55.6,22.21,34.47,74.88,66.32,156.54,94.67,52.59,18.26,99.8,29.02,110.73,31.41,4.44,2.13,16.82,8.4,29.06,17.44,16.87,12.47,26.51,24.98,27.13,35.22.94,15.49-20.45,30.76-33.29,38.49-49.75,29.93-85.81,83.23-104.28,154.14-11.73,45.04-13.16,84.73-13.01,96.41-3.18,39.76-8.57,68.02-16.02,84.01-5.65,12.12-9.79,12.12-11.77,12.12-8.05,0-21.33-6.98-34.17-13.73-19.44-10.22-41.48-21.8-65.63-21.8s-46.26,12.17-64.14,36.16c-16.93,22.72-31.31,56.79-43.8,103.89-10.72,1.03-26.79,2.22-43.79,2.22-34.17,0-51.24-4.6-59.54-8.44,29.6-138.26,15.1-245.38-43.14-318.58-71.67-90.06-188.23-103.51-251.33-103.51-3.6,0-6.95.05-10.03.12v-99.16c101.53-43.97,139.15-107.25,152.73-153.47,8.64-29.4,8.84-55.57,7.21-73.34l105.57-7.54M299.44,0l-142.73,10.19S200.5,162.49,0,242.04v133.69s11.47-1.29,30.03-1.29c92.11,0,359.37,31.73,272.16,410.32,13.77,16.19,49.66,20.21,81.85,20.21s59.75-3.88,59.75-3.88c26.86-109.55,59.48-138.39,91.98-138.39,36.09,0,72.03,35.53,99.81,35.53,23.16,0,40.64-24.69,47.79-115.27,0,0-2.89-167.8,107.61-234.27,110.5-66.48-26.79-127.36-26.79-127.36,0,0-287-60.34-265.25-158.27,8.9-40.07-10.74-51.91-37.04-51.91-37.98,0-89.87,24.67-89.87,24.67,0,0-13.5,17.86-30.38,17.86-13.63,0-29.46-11.63-42.2-53.67h0Z"/>
      <path class="cls-2" d="M38.25,315.32c330.26-211.03,238.16,185.41,685.94-7.48"/>
      <path class="cls-2" d="M592.67,584.64s-243.45-186.69-177.58-473.18"/>
    </g>
  </g>
</svg>