<?xml version="1.0" encoding="UTF-8"?>
<svg id="Camada_3" data-name="Camada 3" xmlns="http://www.w3.org/2000/svg" viewBox="0 0 914.02 903.48">
  <defs>
    <style>
      .cls-1 {
        fill: #ff9e1b;
      }

      .cls-2 {
        fill: none;
        stroke: #ff9e1b;
        stroke-linecap: round;
        stroke-miterlimit: 10;
        stroke-width: 20px;
      }
    </style>
  </defs>
  <g id="Camada_1" data-name="Camada 1">
    <g>
      <g>
        <path class="cls-1" d="M500.57,835.67c1.32,90.41-140.69,90.41-139.36,0-1.32-90.4,140.69-90.4,139.36,0Z"/>
        <path class="cls-1" d="M914.02,327.09c1.32,90.41-140.69,90.41-139.36,0-1.32-90.4,140.69-90.4,139.36,0Z"/>
        <path class="cls-1" d="M139.37,353.02c1.32,90.41-140.69,90.41-139.36,0-1.32-90.4,140.69-90.4,139.36,0Z"/>
        <path class="cls-1" d="M361.2,67.81c1.32,90.41-140.69,90.41-139.36,0-1.32-90.4,140.69-90.4,139.36,0Z"/>
        <path class="cls-1" d="M762.61,674.05c1.32,90.41-140.69,90.41-139.36,0-1.32-90.4,140.69-90.4,139.36,0Z"/>
        <path class="cls-1" d="M559.33,92.68c1.32,90.41-140.69,90.41-139.36,0-1.32-90.4,140.69-90.4,139.36,0Z"/>
        <path class="cls-1" d="M544.23,375.23c1.32,90.41-140.69,90.41-139.36,0-1.32-90.4,140.69-90.4,139.36,0Z"/>
      </g>
      <g>
        <path class="cls-1" d="M348.36,75.19c13.17,33.9,31.59,51.06,54.88,51.06,19.86,0,35.08-13.66,41.83-20.99,15.63-6.94,50.7-20.31,74.93-20.31,7.97,0,13.96,1.53,16.02,4.09,2.01,2.5,3.17,9.59.42,21.97-4.12,18.56-.47,36.87,10.84,54.42,21.64,33.58,72.87,64.58,152.28,92.15,50.98,17.7,96.75,28.15,107.51,30.5,4.26,2.05,15.94,7.97,27.54,16.46,16.56,12.12,26.01,24.24,26.63,34.12.92,14.75-19.68,29.42-32.04,36.86-48.43,29.14-83.54,81.01-101.51,150-11.34,43.51-12.78,82.34-12.65,93.73-3.08,38.52-8.29,65.89-15.5,81.35-3.1,6.65-5.77,9.29-7.09,10.27-.99.73-1.93,1.16-3.81,1.16-7.67,0-20.5-6.74-32.91-13.26-18.94-9.95-40.4-21.23-63.99-21.23s-45.27,11.89-62.74,35.34c-16.44,22.06-30.39,55.08-42.52,100.67-10.39.99-25.79,2.11-42.06,2.11-29.09,0-47.49-3.67-57.14-7.92,28.65-134.2,14.51-238.23-42.09-309.36-69.74-87.63-183.1-100.71-244.47-100.71-3.27,0-6.33.04-9.16.1v-95.3c98.5-42.77,135.05-104.28,148.26-149.22,8.32-28.29,8.6-53.53,7.07-70.83l101.48-7.25M362.27,54.14l-138.58,9.9s42.52,147.87-152.15,225.1v129.8s11.13-1.25,29.16-1.25c89.43,0,348.91,30.81,264.23,398.38,13.37,15.72,48.21,19.62,79.47,19.62s58.01-3.77,58.01-3.77c26.08-106.36,57.75-134.36,89.3-134.36,35.04,0,69.93,34.5,96.9,34.5,22.49,0,39.46-23.97,46.4-111.92,0,0-2.81-162.91,104.48-227.46,107.29-64.54-26.01-123.65-26.01-123.65,0,0-278.65-58.59-257.53-153.66,8.64-38.9-10.43-50.4-35.97-50.4-36.88,0-87.26,23.96-87.26,23.96,0,0-13.1,17.34-29.5,17.34-13.23,0-28.6-11.29-40.97-52.11h0Z"/>
        <path class="cls-2" d="M108.67,360.28c320.65-204.89,231.23,180.02,665.98-7.26"/>
        <path class="cls-2" d="M646.96,621.77s-236.36-181.26-172.41-459.41"/>
      </g>
    </g>
  </g>
</svg>