<?xml version="1.0" encoding="UTF-8"?>
<svg id="Camada_3" data-name="Camada 3" xmlns="http://www.w3.org/2000/svg" viewBox="0 0 927.73 917.02">
  <defs>
    <style>
      .cls-1 {
        fill: #fff;
      }

      .cls-2 {
        fill: none;
        stroke: #fff;
        stroke-linecap: round;
        stroke-miterlimit: 10;
        stroke-width: 20px;
      }
    </style>
  </defs>
  <g id="Camada_1" data-name="Camada 1">
    <g>
      <g>
        <path class="cls-1" d="M508.07,848.2c1.34,91.76-142.8,91.77-141.45,0-1.34-91.76,142.8-91.76,141.45,0Z"/>
        <path class="cls-1" d="M927.72,331.99c1.34,91.76-142.8,91.77-141.45,0-1.34-91.76,142.8-91.76,141.45,0Z"/>
        <path class="cls-1" d="M141.46,358.31c1.34,91.76-142.8,91.77-141.45,0-1.34-91.76,142.8-91.76,141.45,0Z"/>
        <path class="cls-1" d="M366.62,68.82c1.34,91.76-142.8,91.77-141.45,0-1.34-91.76,142.8-91.76,141.45,0Z"/>
        <path class="cls-1" d="M774.04,684.15c1.34,91.76-142.8,91.77-141.45,0-1.34-91.76,142.8-91.76,141.45,0Z"/>
        <path class="cls-1" d="M567.72,94.07c1.34,91.76-142.8,91.77-141.45,0-1.34-91.76,142.8-91.76,141.45,0Z"/>
        <path class="cls-1" d="M552.39,380.85c1.34,91.76-142.8,91.77-141.45,0-1.34-91.76,142.8-91.76,141.45,0Z"/>
      </g>
      <g>
        <path class="cls-1" d="M353.78,76c13.32,34.42,31.95,51.84,55.5,51.84,20.09,0,35.49-13.86,42.27-21.25,15.85-7.05,51.55-20.66,76.23-20.66,8.18,0,14.35,1.6,16.49,4.27,1.01,1.26,4.03,6.6.49,22.55-4.16,18.75-.48,37.26,10.96,55.01,21.93,34.02,73.88,65.45,154.41,93.41,51.79,17.98,98.28,28.58,109.12,30.96,4.39,2.11,16.55,8.27,28.57,17.15,16.55,12.23,26,24.48,26.61,34.48.92,15.11-20.07,30.08-32.67,37.66-49.09,29.53-84.67,82.12-102.9,152.07-11.46,44-12.95,83.73-12.83,95.09-3.13,39.13-8.43,66.94-15.76,82.66-5.49,11.78-9.44,11.78-11.34,11.78-7.86,0-20.91-6.86-33.54-13.5-19.19-10.08-40.94-21.51-64.81-21.51s-45.76,12.03-63.44,35.75c-16.68,22.39-30.85,55.93-43.16,102.28-10.56,1.01-26.29,2.17-42.92,2.17-33.39,0-50.15-4.45-58.34-8.19,29.12-136.22,14.8-241.81-42.62-313.96-70.7-88.84-185.67-102.11-247.9-102.11-3.43,0-6.64.04-9.59.11v-97.23c100.02-43.37,137.1-105.77,150.5-151.34,8.48-28.85,8.72-54.54,7.14-72.09l103.53-7.39M367.7,54.95l-140.66,10.04s43.16,150.08-154.43,228.47v131.74s11.3-1.27,29.59-1.27c90.77,0,354.14,31.27,268.19,404.35,13.57,15.96,48.94,19.91,80.66,19.91s58.88-3.83,58.88-3.83c26.47-107.96,58.62-136.38,90.64-136.38,35.56,0,70.98,35.01,98.35,35.01,22.82,0,40.05-24.33,47.1-113.59,0,0-2.85-165.35,106.04-230.86,108.89-65.51-26.4-125.5-26.4-125.5,0,0-282.82-59.47-261.39-155.97,8.77-39.49-10.58-51.15-36.51-51.15-37.43,0-88.56,24.31-88.56,24.31,0,0-13.3,17.6-29.94,17.6-13.43,0-29.03-11.46-41.58-52.89h0Z"/>
        <path class="cls-2" d="M110.3,365.68c325.45-207.96,234.69,182.72,675.96-7.37"/>
        <path class="cls-2" d="M656.66,631.09s-239.9-183.97-175-466.3"/>
      </g>
    </g>
  </g>
</svg>