<?xml version="1.0" encoding="UTF-8"?>
<svg id="Camada_2" data-name="Camada 2" xmlns="http://www.w3.org/2000/svg" viewBox="0 0 939.48 928.64">
  <defs>
    <style>
      .cls-1 {
        fill: none;
        stroke: #282828;
        stroke-linecap: round;
        stroke-miterlimit: 10;
        stroke-width: 20px;
      }

      .cls-2 {
        fill: #282828;
      }
    </style>
  </defs>
  <g id="Camada_1" data-name="Camada 1">
    <g>
      <g>
        <path class="cls-2" d="M514.51,858.94c1.36,92.93-144.61,92.93-143.24,0-1.36-92.92,144.61-92.92,143.24,0Z"/>
        <path class="cls-2" d="M939.47,336.2c1.36,92.93-144.61,92.93-143.24,0-1.36-92.92,144.61-92.92,143.24,0Z"/>
        <path class="cls-2" d="M143.25,362.85c1.36,92.93-144.61,92.93-143.24,0-1.36-92.92,144.61-92.92,143.24,0Z"/>
        <path class="cls-2" d="M371.26,69.7c1.36,92.93-144.61,92.93-143.24,0-1.36-92.92,144.61-92.92,143.24,0Z"/>
        <path class="cls-2" d="M783.85,692.82c1.36,92.93-144.61,92.93-143.24,0-1.36-92.92,144.61-92.92,143.24,0Z"/>
        <path class="cls-2" d="M574.91,95.26c1.36,92.93-144.61,92.93-143.24,0-1.36-92.92,144.61-92.92,143.24,0Z"/>
        <path class="cls-2" d="M559.39,385.67c1.36,92.93-144.61,92.93-143.24,0-1.36-92.92,144.61-92.92,143.24,0Z"/>
      </g>
      <g>
        <path class="cls-2" d="M358.43,76.7c13.45,34.86,32.26,52.51,56.04,52.51,20.29,0,35.84-14.03,42.66-21.48,16.05-7.14,52.29-20.97,77.34-20.97,8.49,0,14.65,1.61,16.9,4.42,1.04,1.3,4.15,6.79.54,23.05-4.2,18.92-.48,37.6,11.07,55.51,22.17,34.4,74.74,66.19,156.23,94.49,52.48,18.22,99.58,28.96,110.51,31.35,4.43,2.13,16.78,8.38,28.99,17.4,16.83,12.44,26.44,24.91,27.06,35.11.94,15.44-20.4,30.67-33.2,38.37-49.66,29.87-85.65,83.07-104.09,153.85-11.67,44.78-13.12,84.68-12.99,96.24-3.17,39.66-8.55,67.86-15.99,83.8-5.63,12.07-9.74,12.07-11.71,12.07-8.02,0-21.27-6.96-34.08-13.7-19.41-10.2-41.4-21.76-65.52-21.76s-46.19,12.15-64.04,36.1c-16.9,22.68-31.24,56.67-43.71,103.66-10.7,1.03-26.72,2.21-43.67,2.21-34.06,0-51.08-4.58-59.36-8.41,29.53-137.96,15.06-244.88-43.07-317.92-71.53-89.89-187.86-103.31-250.84-103.31-3.58,0-6.91.05-9.97.12v-98.89c101.3-43.88,138.86-107.04,152.41-153.16,8.62-29.32,8.82-55.42,7.2-73.16l105.28-7.52M372.36,55.65l-142.44,10.17s43.7,151.99-156.38,231.36v133.41s11.44-1.29,29.97-1.29c91.92,0,358.63,31.67,271.59,409.47,13.75,16.16,49.56,20.17,81.68,20.17s59.63-3.87,59.63-3.87c26.8-109.33,59.36-138.1,91.79-138.1,36.01,0,71.88,35.46,99.6,35.46,23.11,0,40.56-24.64,47.69-115.03,0,0-2.89-167.45,107.39-233.79s-26.74-127.09-26.74-127.09c0,0-286.41-60.22-264.7-157.94,8.88-39.99-10.72-51.8-36.97-51.8-37.9,0-89.69,24.62-89.69,24.62,0,0-13.47,17.82-30.32,17.82-13.6,0-29.4-11.6-42.11-53.56h0Z"/>
        <path class="cls-1" d="M111.7,370.32c329.58-210.59,237.67,185.03,684.52-7.47"/>
        <path class="cls-1" d="M664.98,639.09s-242.94-186.3-177.21-472.2"/>
      </g>
    </g>
  </g>
</svg>